<svg xmlns="http://www.w3.org/2000/svg" width="900" height="196" viewBox="0 0 900 196" role="img" aria-labelledby="title">
  <title id="title">Four robots dancing, each with a different move.</title>
  <rect width="900" height="196" fill="#fbf6ec"/>
  
  <circle cx="60" cy="24" r="1.2" fill="#1d6fbf"><animate attributeName="opacity" values="0.2;0.9;0.2" dur="1.7s" repeatCount="indefinite"/></circle><circle cx="220" cy="18" r="1.2" fill="#1d6fbf"><animate attributeName="opacity" values="0.2;0.9;0.2" dur="2.1s" repeatCount="indefinite"/></circle><circle cx="420" cy="30" r="1.2" fill="#1d6fbf"><animate attributeName="opacity" values="0.2;0.9;0.2" dur="2.5s" repeatCount="indefinite"/></circle><circle cx="640" cy="16" r="1.2" fill="#1d6fbf"><animate attributeName="opacity" values="0.2;0.9;0.2" dur="2.9000000000000004s" repeatCount="indefinite"/></circle><circle cx="820" cy="26" r="1.2" fill="#1d6fbf"><animate attributeName="opacity" values="0.2;0.9;0.2" dur="3.3s" repeatCount="indefinite"/></circle>
  <text x="28" y="36" fill="#0e8f78" font-family="ui-monospace, Menlo, Consolas, monospace" font-size="13" letter-spacing="3">DANCE</text>
  <rect x="24" y="160" width="852" height="8" rx="4" fill="#efe4cf"/>
  <g>
    <animateTransform attributeName="transform" type="translate" values="0,0;-36,0" dur="0.55s" repeatCount="indefinite"/>
    <rect x="0" y="162" width="16" height="3" rx="1" fill="#0e8f78" opacity="0.45"/><rect x="36" y="162" width="16" height="3" rx="1" fill="#0e8f78" opacity="0.45"/><rect x="72" y="162" width="16" height="3" rx="1" fill="#0e8f78" opacity="0.45"/><rect x="108" y="162" width="16" height="3" rx="1" fill="#0e8f78" opacity="0.45"/><rect x="144" y="162" width="16" height="3" rx="1" fill="#0e8f78" opacity="0.45"/><rect x="180" y="162" width="16" height="3" rx="1" fill="#0e8f78" opacity="0.45"/><rect x="216" y="162" width="16" height="3" rx="1" fill="#0e8f78" opacity="0.45"/><rect x="252" y="162" width="16" height="3" rx="1" fill="#0e8f78" opacity="0.45"/><rect x="288" y="162" width="16" height="3" rx="1" fill="#0e8f78" opacity="0.45"/><rect x="324" y="162" width="16" height="3" rx="1" fill="#0e8f78" opacity="0.45"/><rect x="360" y="162" width="16" height="3" rx="1" fill="#0e8f78" opacity="0.45"/><rect x="396" y="162" width="16" height="3" rx="1" fill="#0e8f78" opacity="0.45"/><rect x="432" y="162" width="16" height="3" rx="1" fill="#0e8f78" opacity="0.45"/><rect x="468" y="162" width="16" height="3" rx="1" fill="#0e8f78" opacity="0.45"/><rect x="504" y="162" width="16" height="3" rx="1" fill="#0e8f78" opacity="0.45"/><rect x="540" y="162" width="16" height="3" rx="1" fill="#0e8f78" opacity="0.45"/><rect x="576" y="162" width="16" height="3" rx="1" fill="#0e8f78" opacity="0.45"/><rect x="612" y="162" width="16" height="3" rx="1" fill="#0e8f78" opacity="0.45"/><rect x="648" y="162" width="16" height="3" rx="1" fill="#0e8f78" opacity="0.45"/><rect x="684" y="162" width="16" height="3" rx="1" fill="#0e8f78" opacity="0.45"/><rect x="720" y="162" width="16" height="3" rx="1" fill="#0e8f78" opacity="0.45"/><rect x="756" y="162" width="16" height="3" rx="1" fill="#0e8f78" opacity="0.45"/><rect x="792" y="162" width="16" height="3" rx="1" fill="#0e8f78" opacity="0.45"/><rect x="828" y="162" width="16" height="3" rx="1" fill="#0e8f78" opacity="0.45"/><rect x="864" y="162" width="16" height="3" rx="1" fill="#0e8f78" opacity="0.45"/><rect x="900" y="162" width="16" height="3" rx="1" fill="#0e8f78" opacity="0.45"/><rect x="936" y="162" width="16" height="3" rx="1" fill="#0e8f78" opacity="0.45"/><rect x="972" y="162" width="16" height="3" rx="1" fill="#0e8f78" opacity="0.45"/>
  </g>
  <g transform="translate(100,96)"><ellipse cx="20" cy="60" rx="26" ry="5" fill="#0e8f78" opacity="0.22"/>
    <g>
      <animateTransform attributeName="transform" type="translate" values="0,0;0,-8;0,0" dur="0.7s" repeatCount="indefinite" calcMode="spline" keySplines="0.4 0 0.6 1;0.4 0 0.6 1"/>
      
      <line x1="20" y1="2" x2="20" y2="-8" stroke="#0e8f78" stroke-width="2" stroke-linecap="round"/>
      <circle cx="20" cy="-10" r="3" fill="#e23d4a"><animate attributeName="opacity" values="1;0.3;1" dur="0.6s" repeatCount="indefinite"/></circle>
      <rect x="6" y="2" width="28" height="20" rx="8" fill="#0e8f78"/>
      <rect x="11" y="8" width="18" height="8" rx="2" fill="#102028"/>
      <rect x="14" y="10" width="5" height="4" rx="1" fill="#e8a317"/>
      <rect x="22" y="10" width="5" height="4" rx="1" fill="#e8a317"/>
      <rect x="8" y="22" width="24" height="16" rx="5" fill="#0a5c4e"/>
      
      <g transform="translate(30,24)">
        <g>
          <animateTransform attributeName="transform" type="rotate" values="-80;50;-80" dur="0.7s" repeatCount="indefinite" calcMode="spline" keySplines="0.4 0 0.6 1;0.4 0 0.6 1"/>
          <rect y="0" width="6" height="16" rx="3" fill="#0e8f78"/>
        </g>
      </g>
      <g transform="translate(4,26)">
        <rect x="-6" y="0" width="6" height="12" rx="3" fill="#0a5c4e"/>
      </g>
      <g transform="translate(16,38)">
        <g>
          <animateTransform attributeName="transform" type="rotate" values="-24;18;-24" dur="0.45s" repeatCount="indefinite"/>
          <rect x="-3" y="0" width="6" height="14" rx="3" fill="#102028"/>
          <rect x="-4" y="11" width="8" height="4" rx="1" fill="#e8a317"/>
        </g>
      </g>
      <g transform="translate(26,38)">
        <g>
          <animateTransform attributeName="transform" type="rotate" values="18;-24;18" dur="0.45s" repeatCount="indefinite"/>
          <rect x="-3" y="0" width="6" height="14" rx="3" fill="#102028"/>
          <rect x="-4" y="11" width="8" height="4" rx="1" fill="#e8a317"/>
        </g>
      </g>
    </g></g><g transform="translate(310,96)"><ellipse cx="20" cy="60" rx="26" ry="5" fill="#c48a12" opacity="0.22"/>
    <g>
      <animateTransform attributeName="transform" type="translate" values="0,0;0,-26;0,0" keyTimes="0;0.45;1" dur="0.62s" repeatCount="indefinite" calcMode="spline" keySplines="0.2 0.8 0.3 1;0.7 0 0.8 0.2"/>
      
      <line x1="20" y1="2" x2="20" y2="-8" stroke="#c48a12" stroke-width="2" stroke-linecap="round"/>
      <circle cx="20" cy="-10" r="3" fill="#e23d4a"><animate attributeName="opacity" values="1;0.3;1" dur="0.6s" repeatCount="indefinite"/></circle>
      <rect x="6" y="2" width="28" height="20" rx="8" fill="#c48a12"/>
      <rect x="11" y="8" width="18" height="8" rx="2" fill="#2a1c04"/>
      <rect x="14" y="10" width="5" height="4" rx="1" fill="#fff4cc"/>
      <rect x="22" y="10" width="5" height="4" rx="1" fill="#fff4cc"/>
      <rect x="8" y="22" width="24" height="16" rx="5" fill="#8a5e08"/>
      
      <g transform="translate(30,22)">
        <g>
          <animateTransform attributeName="transform" type="rotate" values="-70;20;-70" dur="0.45s" repeatCount="indefinite"/>
          <rect y="0" width="6" height="15" rx="3" fill="#c48a12"/>
        </g>
      </g>
      <g transform="translate(6,22)">
        <g>
          <animateTransform attributeName="transform" type="rotate" values="20;-70;20" dur="0.45s" repeatCount="indefinite"/>
          <rect x="-6" y="0" width="6" height="15" rx="3" fill="#c48a12"/>
        </g>
      </g>
      <g transform="translate(16,38)">
        <g>
          <animateTransform attributeName="transform" type="rotate" values="-24;18;-24" dur="0.45s" repeatCount="indefinite"/>
          <rect x="-3" y="0" width="6" height="14" rx="3" fill="#2a1c04"/>
          <rect x="-4" y="11" width="8" height="4" rx="1" fill="#fff4cc"/>
        </g>
      </g>
      <g transform="translate(26,38)">
        <g>
          <animateTransform attributeName="transform" type="rotate" values="18;-24;18" dur="0.45s" repeatCount="indefinite"/>
          <rect x="-3" y="0" width="6" height="14" rx="3" fill="#2a1c04"/>
          <rect x="-4" y="11" width="8" height="4" rx="1" fill="#fff4cc"/>
        </g>
      </g>
    </g></g><g transform="translate(520,96)"><ellipse cx="20" cy="60" rx="26" ry="5" fill="#c43b4a" opacity="0.22"/>
    <g transform="translate(20,28)">
      <g>
        <animateTransform attributeName="transform" type="rotate" values="0;360" dur="1.5s" repeatCount="indefinite"/>
        <g transform="translate(-20,-28)">
      <line x1="20" y1="2" x2="20" y2="-8" stroke="#c43b4a" stroke-width="2" stroke-linecap="round"/>
      <circle cx="20" cy="-10" r="3" fill="#fff4cc"><animate attributeName="opacity" values="1;0.3;1" dur="0.6s" repeatCount="indefinite"/></circle>
      <rect x="6" y="2" width="28" height="20" rx="8" fill="#c43b4a"/>
      <rect x="11" y="8" width="18" height="8" rx="2" fill="#2a0c10"/>
      <rect x="14" y="10" width="5" height="4" rx="1" fill="#e8a317"/>
      <rect x="22" y="10" width="5" height="4" rx="1" fill="#e8a317"/>
      <rect x="8" y="22" width="24" height="16" rx="5" fill="#8d2430"/>
      
      <g transform="translate(30,22)">
        <g>
          <animateTransform attributeName="transform" type="rotate" values="-70;20;-70" dur="0.45s" repeatCount="indefinite"/>
          <rect y="0" width="6" height="15" rx="3" fill="#c43b4a"/>
        </g>
      </g>
      <g transform="translate(6,22)">
        <g>
          <animateTransform attributeName="transform" type="rotate" values="20;-70;20" dur="0.45s" repeatCount="indefinite"/>
          <rect x="-6" y="0" width="6" height="15" rx="3" fill="#c43b4a"/>
        </g>
      </g>
      <g transform="translate(16,38)">
        <g>
          <animateTransform attributeName="transform" type="rotate" values="-24;18;-24" dur="0.45s" repeatCount="indefinite"/>
          <rect x="-3" y="0" width="6" height="14" rx="3" fill="#2a0c10"/>
          <rect x="-4" y="11" width="8" height="4" rx="1" fill="#e8a317"/>
        </g>
      </g>
      <g transform="translate(26,38)">
        <g>
          <animateTransform attributeName="transform" type="rotate" values="18;-24;18" dur="0.45s" repeatCount="indefinite"/>
          <rect x="-3" y="0" width="6" height="14" rx="3" fill="#2a0c10"/>
          <rect x="-4" y="11" width="8" height="4" rx="1" fill="#e8a317"/>
        </g>
      </g></g>
      </g>
    </g></g><g transform="translate(730,96)"><ellipse cx="20" cy="60" rx="26" ry="5" fill="#1d6fbf" opacity="0.22"/>
    <g transform="translate(20,54)">
      <g>
        <animateTransform attributeName="transform" type="rotate" values="-16;16;-16" dur="0.8s" repeatCount="indefinite" calcMode="spline" keySplines="0.4 0 0.6 1;0.4 0 0.6 1"/>
        <g transform="translate(-20,-54)">
      <line x1="20" y1="2" x2="20" y2="-8" stroke="#1d6fbf" stroke-width="2" stroke-linecap="round"/>
      <circle cx="20" cy="-10" r="3" fill="#e23d4a"><animate attributeName="opacity" values="1;0.3;1" dur="0.6s" repeatCount="indefinite"/></circle>
      <rect x="6" y="2" width="28" height="20" rx="8" fill="#1d6fbf"/>
      <rect x="11" y="8" width="18" height="8" rx="2" fill="#071422"/>
      <rect x="14" y="10" width="5" height="4" rx="1" fill="#e8a317"/>
      <rect x="22" y="10" width="5" height="4" rx="1" fill="#e8a317"/>
      <rect x="8" y="22" width="24" height="16" rx="5" fill="#124a82"/>
      
      <g transform="translate(30,22)">
        <g>
          <animateTransform attributeName="transform" type="rotate" values="-70;20;-70" dur="0.45s" repeatCount="indefinite"/>
          <rect y="0" width="6" height="15" rx="3" fill="#1d6fbf"/>
        </g>
      </g>
      <g transform="translate(6,22)">
        <g>
          <animateTransform attributeName="transform" type="rotate" values="20;-70;20" dur="0.45s" repeatCount="indefinite"/>
          <rect x="-6" y="0" width="6" height="15" rx="3" fill="#1d6fbf"/>
        </g>
      </g>
      <g transform="translate(16,38)">
        <g>
          <animateTransform attributeName="transform" type="rotate" values="-24;18;-24" dur="0.45s" repeatCount="indefinite"/>
          <rect x="-3" y="0" width="6" height="14" rx="3" fill="#071422"/>
          <rect x="-4" y="11" width="8" height="4" rx="1" fill="#e8a317"/>
        </g>
      </g>
      <g transform="translate(26,38)">
        <g>
          <animateTransform attributeName="transform" type="rotate" values="18;-24;18" dur="0.45s" repeatCount="indefinite"/>
          <rect x="-3" y="0" width="6" height="14" rx="3" fill="#071422"/>
          <rect x="-4" y="11" width="8" height="4" rx="1" fill="#e8a317"/>
        </g>
      </g></g>
      </g>
    </g></g>

  <rect x="0.5" y="0.5" width="899" height="195" fill="none" stroke="#e4d8c4"/>
</svg>
