<svg xmlns="http://www.w3.org/2000/svg" width="900" height="220" viewBox="0 0 900 220" role="img" aria-labelledby="title">
  <title id="title">A courier robot runs between two delivery bays, mail on the left and LinkedIn on the right.</title>
  <rect width="900" height="220" fill="#fbf6ec"/>
  <rect x="0.5" y="0.5" width="899" height="219" fill="none" stroke="#e4d8c4"/>

  <g fill="#1d6fbf">
    <circle cx="70" cy="28" r="1.2"><animate attributeName="opacity" values="0.2;0.8;0.2" dur="2.4s" repeatCount="indefinite"/></circle>
    <circle cx="180" cy="48" r="1.1"><animate attributeName="opacity" values="0.7;0.15;0.7" dur="3s" repeatCount="indefinite"/></circle>
    <circle cx="320" cy="22" r="1.3"><animate attributeName="opacity" values="0.2;0.8;0.2" dur="2.1s" repeatCount="indefinite"/></circle>
    <circle cx="470" cy="40" r="1"><animate attributeName="opacity" values="0.15;0.7;0.15" dur="2.8s" repeatCount="indefinite"/></circle>
    <circle cx="610" cy="26" r="1.2"><animate attributeName="opacity" values="0.7;0.2;0.7" dur="2.6s" repeatCount="indefinite"/></circle>
    <circle cx="760" cy="46" r="1.1"><animate attributeName="opacity" values="0.2;0.75;0.2" dur="3.2s" repeatCount="indefinite"/></circle>
    <circle cx="840" cy="24" r="1.3"><animate attributeName="opacity" values="0.3;0.8;0.3" dur="1.9s" repeatCount="indefinite"/></circle>
  </g>

  <rect x="48" y="168" width="804" height="8" rx="4" fill="#efe4cf"/>
  <g>
    <animateTransform attributeName="transform" type="translate" values="0,0;-36,0" dur="0.45s" repeatCount="indefinite"/>
    <g fill="#0e8f78" opacity="0.7">
      <rect x="20" y="170" width="16" height="3" rx="1"/>
      <rect x="56" y="170" width="16" height="3" rx="1"/>
      <rect x="92" y="170" width="16" height="3" rx="1"/>
      <rect x="128" y="170" width="16" height="3" rx="1"/>
      <rect x="164" y="170" width="16" height="3" rx="1"/>
      <rect x="200" y="170" width="16" height="3" rx="1"/>
      <rect x="236" y="170" width="16" height="3" rx="1"/>
      <rect x="272" y="170" width="16" height="3" rx="1"/>
      <rect x="308" y="170" width="16" height="3" rx="1"/>
      <rect x="344" y="170" width="16" height="3" rx="1"/>
      <rect x="380" y="170" width="16" height="3" rx="1"/>
      <rect x="416" y="170" width="16" height="3" rx="1"/>
      <rect x="452" y="170" width="16" height="3" rx="1"/>
      <rect x="488" y="170" width="16" height="3" rx="1"/>
      <rect x="524" y="170" width="16" height="3" rx="1"/>
      <rect x="560" y="170" width="16" height="3" rx="1"/>
      <rect x="596" y="170" width="16" height="3" rx="1"/>
      <rect x="632" y="170" width="16" height="3" rx="1"/>
      <rect x="668" y="170" width="16" height="3" rx="1"/>
      <rect x="704" y="170" width="16" height="3" rx="1"/>
      <rect x="740" y="170" width="16" height="3" rx="1"/>
      <rect x="776" y="170" width="16" height="3" rx="1"/>
      <rect x="812" y="170" width="16" height="3" rx="1"/>
      <rect x="848" y="170" width="16" height="3" rx="1"/>
    </g>
  </g>

  <g>
    <ellipse cx="168" cy="176" rx="36" ry="8" fill="#0e8f78" opacity="0.15">
      <animate attributeName="opacity" values="0.35;0.08;0.35" keyTimes="0;0.5;1" dur="5.6s" repeatCount="indefinite"/>
      <animate attributeName="rx" values="40;28;40" keyTimes="0;0.5;1" dur="5.6s" repeatCount="indefinite"/>
    </ellipse>
    <rect x="132" y="148" width="72" height="22" rx="8" fill="#fffdf8" stroke="#0e8f78"/>
    <rect x="148" y="155" width="22" height="12" rx="2" fill="none" stroke="#0e8f78" stroke-width="1.6"/>
    <path d="M149 156 L159 163 L169 156" fill="none" stroke="#0e8f78" stroke-width="1.6"/>
    <circle cx="190" cy="154" r="3.2" fill="#0e8f78">
      <animate attributeName="opacity" values="1;0.25;1" keyTimes="0;0.5;1" dur="5.6s" repeatCount="indefinite"/>
    </circle>
  </g>

  <g>
    <ellipse cx="700" cy="176" rx="36" ry="8" fill="#0a66c2" opacity="0.12">
      <animate attributeName="opacity" values="0.08;0.35;0.08" keyTimes="0;0.5;1" dur="5.6s" repeatCount="indefinite"/>
      <animate attributeName="rx" values="28;42;28" keyTimes="0;0.5;1" dur="5.6s" repeatCount="indefinite"/>
    </ellipse>
    <rect x="664" y="148" width="72" height="22" rx="8" fill="#fffdf8" stroke="#0a66c2"/>
    <rect x="686" y="151" width="28" height="16" rx="4" fill="#0a66c2"/>
    <text x="700" y="163" text-anchor="middle" fill="#ffffff" font-family="Arial, Helvetica, sans-serif" font-size="11" font-weight="700">in</text>
    <circle cx="678" cy="154" r="3.2" fill="#1d6fbf">
      <animate attributeName="opacity" values="0.25;1;0.25" keyTimes="0;0.5;1" dur="5.6s" repeatCount="indefinite"/>
    </circle>
  </g>

  <g opacity="0">
    <animate attributeName="opacity" values="1;0;0;0;1" keyTimes="0;0.16;0.5;0.84;1" dur="5.6s" repeatCount="indefinite"/>
    <animateTransform attributeName="transform" type="translate" values="156,118;156,146;156,146;156,146;156,118" keyTimes="0;0.16;0.5;0.84;1" dur="5.6s" repeatCount="indefinite"/>
    <rect x="0" y="0" width="16" height="12" rx="2" fill="#0e8f78"/>
    <path d="M1 1 L8 7 L15 1" fill="none" stroke="#fbf6ec" stroke-width="1.4"/>
  </g>
  <g opacity="0">
    <animate attributeName="opacity" values="0;0;1;0;0" keyTimes="0;0.38;0.5;0.66;1" dur="5.6s" repeatCount="indefinite"/>
    <animateTransform attributeName="transform" type="translate" values="688,146;688,146;688,118;688,146;688,146" keyTimes="0;0.38;0.5;0.66;1" dur="5.6s" repeatCount="indefinite"/>
    <rect width="18" height="14" rx="3" fill="#0a66c2"/>
    <text x="9" y="11" text-anchor="middle" fill="#ffffff" font-family="Arial, Helvetica, sans-serif" font-size="9" font-weight="700">in</text>
  </g>

  <g>
    <animateTransform attributeName="transform" type="translate"
      values="150,108; 390,92; 680,108; 390,92; 150,108"
      keyTimes="0;0.25;0.5;0.75;1"
      dur="5.6s" repeatCount="indefinite" calcMode="spline"
      keySplines="0.45 0 0.55 1;0.45 0 0.55 1;0.45 0 0.55 1;0.45 0 0.55 1"/>
    <ellipse cx="20" cy="62" rx="14" ry="3" fill="#1c2430" opacity="0.18"/>
    <g>
      <animate attributeName="opacity" values="1;1;0;0;1" keyTimes="0;0.46;0.52;0.96;1" dur="5.6s" repeatCount="indefinite"/>
      <line x1="20" y1="4" x2="20" y2="-6" stroke="#0e8f78" stroke-width="2" stroke-linecap="round"/>
      <circle cx="20" cy="-8" r="3" fill="#e23d4a"><animate attributeName="opacity" values="1;0.25;1" dur="0.7s" repeatCount="indefinite"/></circle>
      <rect x="6" y="4" width="28" height="20" rx="8" fill="#0e8f78"/>
      <rect x="11" y="10" width="18" height="8" rx="2" fill="#102028"/>
      <rect x="14" y="12" width="5" height="4" rx="1" fill="#8ecbff"/>
      <rect x="22" y="12" width="5" height="4" rx="1" fill="#8ecbff"/>
      <rect x="8" y="24" width="24" height="16" rx="5" fill="#0a5c4e"/>
      <rect x="13" y="28" width="10" height="7" rx="2" fill="#12a88c"/>
      <g transform="translate(30,26)"><g><animateTransform attributeName="transform" type="rotate" values="-18;26;-18" dur="0.28s" repeatCount="indefinite"/><rect width="6" height="12" rx="3" fill="#0e8f78"/></g></g>
      <g transform="translate(16,40)"><g><animateTransform attributeName="transform" type="rotate" values="-28;28;-28" dur="0.28s" repeatCount="indefinite"/><rect x="-3" y="0" width="6" height="14" rx="3" fill="#1c2430"/><rect x="-4" y="11" width="8" height="4" rx="1" fill="#e8a317"/></g></g>
      <g transform="translate(26,40)"><g><animateTransform attributeName="transform" type="rotate" values="28;-28;28" dur="0.28s" repeatCount="indefinite"/><rect x="-3" y="0" width="6" height="14" rx="3" fill="#1c2430"/><rect x="-4" y="11" width="8" height="4" rx="1" fill="#e8a317"/></g></g>
    </g>
    <g>
      <animate attributeName="opacity" values="0;0;1;1;0" keyTimes="0;0.46;0.52;0.96;1" dur="5.6s" repeatCount="indefinite"/>
      <g transform="translate(40,0) scale(-1,1)">
        <line x1="20" y1="4" x2="20" y2="-6" stroke="#0e8f78" stroke-width="2" stroke-linecap="round"/>
        <circle cx="20" cy="-8" r="3" fill="#e23d4a"><animate attributeName="opacity" values="1;0.25;1" dur="0.7s" repeatCount="indefinite"/></circle>
        <rect x="6" y="4" width="28" height="20" rx="8" fill="#0e8f78"/>
        <rect x="11" y="10" width="18" height="8" rx="2" fill="#102028"/>
        <rect x="14" y="12" width="5" height="4" rx="1" fill="#8ecbff"/>
        <rect x="22" y="12" width="5" height="4" rx="1" fill="#8ecbff"/>
        <rect x="8" y="24" width="24" height="16" rx="5" fill="#0a5c4e"/>
        <rect x="13" y="28" width="10" height="7" rx="2" fill="#12a88c"/>
        <g transform="translate(30,26)"><g><animateTransform attributeName="transform" type="rotate" values="-18;26;-18" dur="0.28s" repeatCount="indefinite"/><rect width="6" height="12" rx="3" fill="#0e8f78"/></g></g>
        <g transform="translate(16,40)"><g><animateTransform attributeName="transform" type="rotate" values="-28;28;-28" dur="0.28s" repeatCount="indefinite"/><rect x="-3" y="0" width="6" height="14" rx="3" fill="#1c2430"/><rect x="-4" y="11" width="8" height="4" rx="1" fill="#e8a317"/></g></g>
        <g transform="translate(26,40)"><g><animateTransform attributeName="transform" type="rotate" values="28;-28;28" dur="0.28s" repeatCount="indefinite"/><rect x="-3" y="0" width="6" height="14" rx="3" fill="#1c2430"/><rect x="-4" y="11" width="8" height="4" rx="1" fill="#e8a317"/></g></g>
      </g>
    </g>
  </g>
  <rect x="0.5" y="0.5" width="899" height="219" fill="none" stroke="#e4d8c4"/>
</svg>
