<svg xmlns="http://www.w3.org/2000/svg" width="900" height="176" viewBox="0 0 900 176" role="img" aria-labelledby="title">
  <title id="title">LinkedIn</title>
  <rect width="900" height="176" fill="#070b14"/>
  
  <circle cx="48" cy="22" r="1.2" fill="#f7f4ea"><animate attributeName="opacity" values="0.2;0.9;0.2" dur="1.8s" repeatCount="indefinite"/></circle>
<circle cx="140" cy="36" r="1.2" fill="#f7f4ea"><animate attributeName="opacity" values="0.2;0.9;0.2" dur="2.15s" repeatCount="indefinite"/></circle>
<circle cx="260" cy="18" r="1.2" fill="#f7f4ea"><animate attributeName="opacity" values="0.2;0.9;0.2" dur="2.5s" repeatCount="indefinite"/></circle>
<circle cx="390" cy="42" r="1.2" fill="#f7f4ea"><animate attributeName="opacity" values="0.2;0.9;0.2" dur="2.8499999999999996s" repeatCount="indefinite"/></circle>
<circle cx="520" cy="20" r="1.2" fill="#f7f4ea"><animate attributeName="opacity" values="0.2;0.9;0.2" dur="3.2s" repeatCount="indefinite"/></circle>
<circle cx="800" cy="28" r="1.2" fill="#f7f4ea"><animate attributeName="opacity" values="0.2;0.9;0.2" dur="3.55s" repeatCount="indefinite"/></circle>
  <text x="28" y="40" fill="#8ecbff" font-family="ui-monospace, Menlo, Consolas, monospace" font-size="13" letter-spacing="3">LINKEDIN</text>
  
  <rect x="24" y="148" width="852" height="8" rx="4" fill="#121a16"/>
  <g>
    <animateTransform attributeName="transform" type="translate" values="0,0;-36,0" dur="0.5s" repeatCount="indefinite"/>
    <rect x="0" y="150" width="16" height="3" rx="1" fill="#5eecc4" opacity="0.55"/><rect x="36" y="150" width="16" height="3" rx="1" fill="#5eecc4" opacity="0.55"/><rect x="72" y="150" width="16" height="3" rx="1" fill="#5eecc4" opacity="0.55"/><rect x="108" y="150" width="16" height="3" rx="1" fill="#5eecc4" opacity="0.55"/><rect x="144" y="150" width="16" height="3" rx="1" fill="#5eecc4" opacity="0.55"/><rect x="180" y="150" width="16" height="3" rx="1" fill="#5eecc4" opacity="0.55"/><rect x="216" y="150" width="16" height="3" rx="1" fill="#5eecc4" opacity="0.55"/><rect x="252" y="150" width="16" height="3" rx="1" fill="#5eecc4" opacity="0.55"/><rect x="288" y="150" width="16" height="3" rx="1" fill="#5eecc4" opacity="0.55"/><rect x="324" y="150" width="16" height="3" rx="1" fill="#5eecc4" opacity="0.55"/><rect x="360" y="150" width="16" height="3" rx="1" fill="#5eecc4" opacity="0.55"/><rect x="396" y="150" width="16" height="3" rx="1" fill="#5eecc4" opacity="0.55"/><rect x="432" y="150" width="16" height="3" rx="1" fill="#5eecc4" opacity="0.55"/><rect x="468" y="150" width="16" height="3" rx="1" fill="#5eecc4" opacity="0.55"/><rect x="504" y="150" width="16" height="3" rx="1" fill="#5eecc4" opacity="0.55"/><rect x="540" y="150" width="16" height="3" rx="1" fill="#5eecc4" opacity="0.55"/><rect x="576" y="150" width="16" height="3" rx="1" fill="#5eecc4" opacity="0.55"/><rect x="612" y="150" width="16" height="3" rx="1" fill="#5eecc4" opacity="0.55"/><rect x="648" y="150" width="16" height="3" rx="1" fill="#5eecc4" opacity="0.55"/><rect x="684" y="150" width="16" height="3" rx="1" fill="#5eecc4" opacity="0.55"/><rect x="720" y="150" width="16" height="3" rx="1" fill="#5eecc4" opacity="0.55"/><rect x="756" y="150" width="16" height="3" rx="1" fill="#5eecc4" opacity="0.55"/><rect x="792" y="150" width="16" height="3" rx="1" fill="#5eecc4" opacity="0.55"/><rect x="828" y="150" width="16" height="3" rx="1" fill="#5eecc4" opacity="0.55"/><rect x="864" y="150" width="16" height="3" rx="1" fill="#5eecc4" opacity="0.55"/><rect x="900" y="150" width="16" height="3" rx="1" fill="#5eecc4" opacity="0.55"/><rect x="936" y="150" width="16" height="3" rx="1" fill="#5eecc4" opacity="0.55"/><rect x="972" y="150" width="16" height="3" rx="1" fill="#5eecc4" opacity="0.55"/>
  </g>
  <g transform="translate(748,70)">
    <ellipse cx="39" cy="78" rx="34" ry="8" fill="#0a66c2" opacity="0.25">
      <animate attributeName="opacity" values="0.15;0.4;0.15" dur="4.2s" repeatCount="indefinite"/>
    </ellipse>
    <rect width="78" height="78" rx="16" fill="#0a66c2">
      <animate attributeName="opacity" values="1;1;0.75;1" keyTimes="0;0.65;0.78;1" dur="4.2s" repeatCount="indefinite"/>
    </rect>
    <text x="39" y="50" text-anchor="middle" fill="#ffffff" font-family="Arial, Helvetica, sans-serif" font-size="34" font-weight="700">in</text>
  </g>
  <g>
    <animate attributeName="opacity" values="0;0;1;0;0" keyTimes="0;0.5;0.62;0.8;1" dur="4.2s" repeatCount="indefinite"/>
    <animateTransform attributeName="transform" type="translate" values="540,100;540,100;770,100;770,100" keyTimes="0;0.5;0.74;1" dur="4.2s" repeatCount="indefinite"/>
    <rect width="22" height="16" rx="3" fill="#0a66c2"/>
    <text x="11" y="12" text-anchor="middle" fill="#ffffff" font-family="Arial, Helvetica, sans-serif" font-size="10" font-weight="700">in</text>
  </g>
  
  <g>
    <animate attributeName="opacity" values="1;1;0;0;1" keyTimes="0;0.68;0.76;0.9;1" dur="4.2s" repeatCount="indefinite"/>
    <animateTransform attributeName="transform" type="translate"
      values="70,92;620,92;70,92;70,92"
      keyTimes="0;0.7;0.72;1" dur="4.2s" repeatCount="indefinite"/>
    <ellipse cx="20" cy="58" rx="14" ry="3" fill="#05080f" opacity="0.28"/>
    
      <line x1="20" y1="4" x2="20" y2="-6" stroke="#5eecc4" stroke-width="2" stroke-linecap="round"/>
      <circle cx="20" cy="-8" r="3" fill="#ff6b6b"><animate attributeName="opacity" values="1;0.25;1" dur="0.7s" repeatCount="indefinite"/></circle>
      <rect x="6" y="4" width="28" height="20" rx="8" fill="#5eecc4"/>
      <rect x="11" y="10" width="18" height="8" rx="2" fill="#05080f"/>
      <rect x="14" y="12" width="5" height="4" rx="1" fill="#8ecbff"/>
      <rect x="22" y="12" width="5" height="4" rx="1" fill="#8ecbff"/>
      <rect x="8" y="24" width="24" height="16" rx="5" fill="#0f6e5c"/>
      <rect x="13" y="28" width="10" height="7" rx="2" fill="#5eecc4"/>
      <g transform="translate(30,26)"><g><animateTransform attributeName="transform" type="rotate" values="-18;26;-18" dur="0.28s" repeatCount="indefinite"/><rect width="6" height="12" rx="3" fill="#5eecc4"/></g></g>
      <g transform="translate(16,40)"><g><animateTransform attributeName="transform" type="rotate" values="-28;28;-28" dur="0.28s" repeatCount="indefinite"/><rect x="-3" y="0" width="6" height="14" rx="3" fill="#05080f"/><rect x="-4" y="11" width="8" height="4" rx="1" fill="#ffd166"/></g></g>
      <g transform="translate(26,40)"><g><animateTransform attributeName="transform" type="rotate" values="28;-28;28" dur="0.28s" repeatCount="indefinite"/><rect x="-3" y="0" width="6" height="14" rx="3" fill="#05080f"/><rect x="-4" y="11" width="8" height="4" rx="1" fill="#ffd166"/></g></g>
    
  </g>

  <rect x="0.5" y="0.5" width="899" height="175" fill="none" stroke="#24344c"/>
</svg>
